# xmcd CD database file
#
# Track frame offsets:
#	150
#	12669
#	23732
#	36833
#	54054
#	66579
#	78955
#	93189
#	107066
#	120693
#
# Disc length: 1767 seconds
#
# Revision: 4
# Processed by: cddbd v1.5.2PL0 Copyright (c) Steve Scherf et al.
# Submitted via: CDex 1.70beta2
#
DISCID=7806e50a
DTITLE=Allen Karl and Amberley Beatty - If I Could Spend Today Loving You
DYEAR=2010
DGENRE=Country
TTITLE0=If I Could Spend Today Loving You
TTITLE1=Cryin' Time
TTITLE2=I Got You
TTITLE3=Whatever Happened to Us
TTITLE4=I Don't Want to Have to Merry You
TTITLE5=As Far as I'm Concerned
TTITLE6=Never Ending Song of Love
TTITLE7=Have You Ever Been Lonely (Have You Ever Been Blue)
TTITLE8=We Go Logether
TTITLE9=Have I Told You Lately That I Love You
EXTD=YEAR: 2010
EXTT0=
EXTT1=
EXTT2=
EXTT3=
EXTT4=
EXTT5=
EXTT6=
EXTT7=
EXTT8=
EXTT9=
PLAYORDER=
